<svg width="32" height="33" viewBox="0 0 32 33" fill="none" xmlns="http://www.w3.org/2000/svg">
<path d="M24 11.6666C24 9.54489 23.1571 7.51006 21.6569 6.00977C20.1566 4.50948 18.1217 3.66663 16 3.66663C13.8783 3.66663 11.8434 4.50948 10.3431 6.00977C8.84285 7.51006 8 9.54489 8 11.6666C8 21 4 23.6666 4 23.6666H28C28 23.6666 24 21 24 11.6666Z" stroke="#87959D" stroke-width="2" stroke-linecap="round" stroke-linejoin="round"/>
<path d="M18.3067 29C18.0723 29.4041 17.7358 29.7395 17.331 29.9727C16.9262 30.2059 16.4672 30.3286 16 30.3286C15.5329 30.3286 15.0739 30.2059 14.6691 29.9727C14.2642 29.7395 13.9278 29.4041 13.6934 29" stroke="#87959D" stroke-width="2" stroke-linecap="round" stroke-linejoin="round"/>
<circle cx="23" cy="5" r="5" fill="#FF9A65"/>
</svg>
