<svg width="32" height="32" viewBox="0 0 32 32" fill="none" xmlns="http://www.w3.org/2000/svg">
<g clip-path="url(#clip0_290_4728)">
<g filter="url(#filter0_d_290_4728)">
<path d="M24 10.6666C24 8.54489 23.1571 6.51006 21.6569 5.00977C20.1566 3.50948 18.1217 2.66663 16 2.66663C13.8783 2.66663 11.8434 3.50948 10.3431 5.00977C8.84286 6.51006 8 8.54489 8 10.6666C8 20 4 22.6666 4 22.6666H28C28 22.6666 24 20 24 10.6666Z" stroke="#38515E" stroke-width="2" stroke-linecap="round" stroke-linejoin="round" shape-rendering="crispEdges"/>
</g>
<g filter="url(#filter1_d_290_4728)">
<path d="M18.3067 28C18.0723 28.4041 17.7358 28.7395 17.331 28.9727C16.9262 29.2059 16.4672 29.3286 16 29.3286C15.5329 29.3286 15.0739 29.2059 14.6691 28.9727C14.2642 28.7395 13.9278 28.4041 13.6934 28" stroke="#38515E" stroke-width="2" stroke-linecap="round" stroke-linejoin="round" shape-rendering="crispEdges"/>
</g>
</g>
<defs>
<filter id="filter0_d_290_4728" x="-1.00012" y="1.66663" width="34.0002" height="30" filterUnits="userSpaceOnUse" color-interpolation-filters="sRGB">
<feFlood flood-opacity="0" result="BackgroundImageFix"/>
<feColorMatrix in="SourceAlpha" type="matrix" values="0 0 0 0 0 0 0 0 0 0 0 0 0 0 0 0 0 0 127 0" result="hardAlpha"/>
<feOffset dy="4"/>
<feGaussianBlur stdDeviation="2"/>
<feComposite in2="hardAlpha" operator="out"/>
<feColorMatrix type="matrix" values="0 0 0 0 0 0 0 0 0 0 0 0 0 0 0 0 0 0 0.25 0"/>
<feBlend mode="normal" in2="BackgroundImageFix" result="effect1_dropShadow_290_4728"/>
<feBlend mode="normal" in="SourceGraphic" in2="effect1_dropShadow_290_4728" result="shape"/>
</filter>
<filter id="filter1_d_290_4728" x="8.69324" y="26.9999" width="14.6136" height="11.3287" filterUnits="userSpaceOnUse" color-interpolation-filters="sRGB">
<feFlood flood-opacity="0" result="BackgroundImageFix"/>
<feColorMatrix in="SourceAlpha" type="matrix" values="0 0 0 0 0 0 0 0 0 0 0 0 0 0 0 0 0 0 127 0" result="hardAlpha"/>
<feOffset dy="4"/>
<feGaussianBlur stdDeviation="2"/>
<feComposite in2="hardAlpha" operator="out"/>
<feColorMatrix type="matrix" values="0 0 0 0 0 0 0 0 0 0 0 0 0 0 0 0 0 0 0.25 0"/>
<feBlend mode="normal" in2="BackgroundImageFix" result="effect1_dropShadow_290_4728"/>
<feBlend mode="normal" in="SourceGraphic" in2="effect1_dropShadow_290_4728" result="shape"/>
</filter>
<clipPath id="clip0_290_4728">
<rect width="32" height="32" fill="white"/>
</clipPath>
</defs>
</svg>
