<svg width="54" height="21" viewBox="0 0 54 21" fill="none" xmlns="http://www.w3.org/2000/svg">
<path d="M1.73306 11.7335C1.96 11.4744 2.20071 11.2397 2.45516 11.0296C2.70962 10.8195 2.97783 10.6409 3.2598 10.4938C3.54864 10.3397 3.85123 10.2241 4.16759 10.1471C4.49081 10.063 4.83811 10.021 5.20948 10.021C5.78029 10.021 6.28233 10.1191 6.71559 10.3152C7.15573 10.5043 7.52022 10.7775 7.80907 11.1347C8.10479 11.4849 8.3283 11.9086 8.47959 12.4059C8.63089 12.9032 8.70654 13.453 8.70654 14.0554V20.8319C7.68673 20.8319 6.86001 20.0052 6.86001 18.9854V14.0554C6.86001 13.2499 6.67777 12.6266 6.31327 12.1853C5.95566 11.737 5.40892 11.5129 4.67306 11.5129C4.12976 11.5129 3.62085 11.646 3.14632 11.9121C2.19434 12.4539 1.84653 13.5981 1.84653 14.6935V18.9854C1.84653 20.0052 1.01981 20.8319 0 20.8319V10.1891H1.10379C1.36513 10.1891 1.52674 10.3187 1.58863 10.5778L1.73306 11.7335Z" fill="#132025"/>
<path d="M18.509 16.1286C18.4825 17.0041 16.818 16.1286 15.9035 16.1286C15.7681 16.1286 15.6633 16.1286 15.5803 16.13C14.8683 16.1423 14.1799 16.5797 13.9597 17.257C13.8256 17.5616 13.8256 17.7956 13.8256 18.0898C13.8256 18.3699 13.8703 18.6116 13.9597 18.8147C14.0491 19.0178 14.1695 19.1859 14.3208 19.319C14.4789 19.4451 14.6612 19.5396 14.8675 19.6027C15.0807 19.6587 15.3076 19.6867 15.5483 19.6867C15.8716 19.6867 16.1673 19.6552 16.4355 19.5922C16.7037 19.5221 16.9547 19.4241 17.1886 19.298C17.4293 19.1719 17.6562 19.0213 17.8694 18.8462C18.3107 18.4951 18.509 17.9343 18.509 17.3703V16.1286ZM12.0351 11.751C13.3246 10.8755 13.7775 10.7004 14.4445 10.4202C15.1116 10.1401 15.8509 10 16.6624 10C17.247 10 17.7662 10.0981 18.2201 10.2942C18.674 10.4903 19.0557 10.7635 19.3652 11.1137C19.6747 11.4639 19.9085 11.8876 20.0667 12.3849C20.2248 12.8822 20.3039 13.4285 20.3039 14.0239V20.8319C20.1962 20.8319 19.8079 20.8217 19.4951 20.8014C19.2169 20.7833 18.9827 20.6355 18.8494 20.3906C18.7593 19.9503 18.2184 19.778 17.8645 20.0551C17.8558 20.0619 17.8471 20.0687 17.8384 20.0755C17.5771 20.2716 17.302 20.4397 17.0132 20.5798C16.7243 20.7128 16.4149 20.8144 16.0848 20.8844C15.7615 20.9615 15.4005 21 15.0016 21C14.5958 21 14.2142 20.944 13.8565 20.8319C13.4989 20.7128 13.186 20.5377 12.9178 20.3066C12.6565 20.0755 12.4467 19.7848 12.2885 19.4346C12.1372 19.0774 12.0616 18.6571 12.0616 18.1738C12.0616 17.7536 12.084 17.074 12.2885 16.5664C12.4649 16.1286 12.8157 15.5543 13.3246 15.2531C14.1201 14.7823 15.0503 14.9756 15.9438 15.2127C17.0658 15.5104 18.4929 15.7837 18.509 15.2531V14.0239C18.509 13.1974 18.3336 12.574 17.9829 12.1538C17.6321 11.7265 17.1198 11.5129 16.4458 11.5129C15.9919 11.5129 15.6102 11.5724 15.3008 11.6915C14.9982 11.8036 14.7334 11.9331 14.5064 12.0802C14.2864 12.2203 14.0938 12.3499 13.9288 12.469C13.7706 12.581 13.6124 12.6371 13.4542 12.6371C13.3304 12.6371 13.2238 12.6055 13.1344 12.5425C13.045 12.4725 12.0351 11.751 12.0351 11.751Z" fill="#132025"/>
<path d="M33.1745 10.1891L28.9141 20.8319H27.2635L23.0031 10.1891H24.4989C24.6502 10.1891 24.774 10.2276 24.8703 10.3047C24.9666 10.3817 25.0319 10.4728 25.0663 10.5778L27.7174 17.4279C27.8 17.687 27.8722 17.9392 27.9341 18.1843C27.9784 18.3599 28.2405 18.3599 28.2848 18.1843C28.3467 17.9392 28.4224 17.687 28.5118 17.4279L31.1939 10.5778C31.2351 10.4658 31.3039 10.3747 31.4002 10.3047C31.4965 10.2276 31.6099 10.1891 31.7406 10.1891H33.1745Z" fill="#132025"/>
<path d="M38 10.1891V20.8319H36.1638V12.0253C36.1638 11.0112 36.9859 10.1891 38 10.1891Z" fill="#132025"/>
<path d="M49.8742 0.283936C49.3376 4.81929 49.4958 6.1543 45.7485 6.65957C49.4322 7.2789 49.4852 8.67562 49.8742 13.0352C50.3866 8.65014 50.2868 7.33653 53.9999 6.65957C50.2577 6.16193 50.3837 4.81394 49.8742 0.283936Z" fill="#F09C2E"/>
<path d="M47.4466 11.9263C47.3689 12.0807 47.2492 12.1579 47.0874 12.1579C46.9903 12.1579 46.8803 12.1193 46.7573 12.0421C46.6343 11.9649 46.4822 11.8807 46.301 11.7895C46.1262 11.6912 45.9159 11.6035 45.6699 11.5263C45.424 11.4421 45.1327 11.4 44.7961 11.4C44.5049 11.4 44.2427 11.4421 44.0097 11.5263C43.7767 11.6035 43.5761 11.7123 43.4078 11.8526C43.246 11.993 43.1197 12.1579 43.0291 12.3474C42.945 12.5298 42.9029 12.7298 42.9029 12.9474C42.9029 13.2211 42.9741 13.4491 43.1165 13.6316C43.2654 13.814 43.4595 13.9719 43.699 14.1053C43.9385 14.2386 44.2104 14.3579 44.5146 14.4632C44.8188 14.5614 45.1294 14.6702 45.4466 14.7895C45.7702 14.9018 46.0841 15.0281 46.3883 15.1684C46.6926 15.3088 46.9644 15.4842 47.2039 15.6947C47.4434 15.9053 47.6343 16.1649 47.7767 16.4737C47.9256 16.7754 48 17.1404 48 17.5684C48 18.0596 47.9191 18.5158 47.7573 18.9368C47.5955 19.3509 47.356 19.7123 47.0388 20.0211C46.7217 20.3228 46.3333 20.5614 45.8738 20.7368C45.4142 20.9123 44.8835 21 44.2816 21C43.5955 21 42.9741 20.8807 42.4175 20.6421C41.8608 20.3965 41.3884 20.0842 41 19.7053V19.6491C41.0518 19.5579 41 19.2105 41.4045 18.7719C41.4045 18.7719 41.8091 18.3333 42.2136 18.3333C42.2136 18.3333 42.4727 18.7053 42.6181 18.8526C42.6318 18.8665 42.652 18.8855 42.6761 18.9076C42.9018 19.1142 43.1582 19.284 43.4272 19.4298L43.4761 19.4563C43.7095 19.5829 43.9708 19.6491 44.2362 19.6491C44.5017 19.6491 44.763 19.5829 44.9964 19.4563L45.241 19.3237C45.3793 19.2488 45.5043 19.1515 45.6109 19.0359C45.7707 18.8626 45.8853 18.6525 45.9444 18.4243L45.9886 18.2535C46.0338 18.0789 46.0566 17.8992 46.0566 17.7188V17.4194C46.0566 17.2365 46.0251 17.055 45.9633 16.8828C45.8914 16.6823 45.7799 16.4983 45.6355 16.3417L45.4498 16.1404C45.182 15.85 44.8675 15.6063 44.5201 15.4184C44.3514 15.3272 44.213 15.2519 44.2362 15.2632C44.2362 15.2632 43.4078 14.8264 43.1165 14.6341C42.8252 14.4419 42.657 14.3228 42.4175 14.1053C42.0006 13.7266 41.6247 13.25 41.5938 12.6877C41.5928 12.6686 41.5922 12.6499 41.5922 12.6316C41.5922 12.5347 41.5943 12.3942 41.6074 12.2365C41.6475 11.7529 41.8258 11.274 42.1748 10.9368C42.4725 10.6491 42.8382 10.4211 43.2718 10.2526C43.7055 10.0842 44.2006 10 44.7573 10C45.4045 10 45.9838 10.1123 46.4951 10.3368C47.0129 10.5544 47.4595 10.8561 47.835 11.2421L47.4466 11.9263Z" fill="#132025"/>
</svg>
