<svg width="83" height="104" viewBox="0 0 83 104" fill="none" xmlns="http://www.w3.org/2000/svg">
<path d="M17.749 89.0431C17.2437 88.8443 16.825 88.1047 16.5482 87.9202C9.63541 80.3869 3.06622 86.6759 2.78946 86.8592C0.602385 88.3074 0.743806 89.0431 0.329135 88.3074C-0.085561 87.5731 -0.0855626 86.4696 0.605918 85.7353C20.1004 64.6071 18.5795 16.6533 18.5795 16.2858C18.5795 15.5514 18.4108 12.9727 19.5478 14.448C19.271 13.8969 20.865 17.2556 19.5478 14.448C34.8654 44.9458 20.3293 83.7613 17.7154 89.0754C17.3676 88.6133 18.0629 88.6139 17.749 89.0431ZM9.59375 83.7613C11.944 83.7613 15.1231 85.3002 17.749 87.6891C21.3435 81.2579 32.6234 43.8445 18.9365 14.9991C18.7986 20.1435 18.7074 33.7541 17.7492 42.6356C15.3312 65.0469 7.50741 77.7542 1.07451 87.6891C5.76879 83.7613 8.62554 83.7613 9.59375 83.7613Z" fill="#38515E"/>
<path d="M47.6969 92.2423C47.9519 92.1392 49.3669 91.7654 50.8415 91.4118L54.4163 90.4657L55.6576 91.5479C55.3726 92.1964 54.7633 92.4846 52.275 93.1468C48.5465 94.1391 48.3441 94.1415 47.7283 93.1923L47.2334 92.4298L47.6969 92.2423Z" fill="#38515E"/>
<path d="M1.42932 93.7338C9.08157 95.7221 32.5725 95.2257 44.1884 92.8297C45.0623 92.6496 45.8469 92.4788 45.9321 92.4504C46.0173 92.422 45.8896 92.9219 45.6481 93.5611C45.1479 94.8868 45.0345 94.939 41.408 95.5019C39.988 95.7225 38.3794 95.9831 37.8332 96.0815C32.8033 96.9864 10.9162 97.1762 5.16359 96.3651C0.519733 95.7104 0.397196 95.661 0.397196 94.4449C0.397196 93.4895 0.422623 93.472 1.42932 93.7338Z" fill="#38515E"/>
<path d="M46.3635 96.6623C46.0674 96.1811 45.9715 94.6764 46.2076 94.2142C46.4435 93.7517 47.2117 93.9396 47.4574 94.5196C47.5891 94.8305 47.6401 95.4342 47.5708 95.8614C47.4127 96.837 46.744 97.2809 46.3635 96.6623Z" fill="#38515E"/>
<path d="M48.2845 96.3488C48.3255 96.1146 49.6549 95.5007 51.2387 94.9849C54.965 93.7711 54.8755 93.7793 54.6278 94.6857C54.2028 96.2414 51.5392 100.609 50.2378 101.884C48.0822 103.997 47.6552 104.014 44.8325 102.105C42.5706 100.575 42.2557 100.461 40.3157 100.466C38.383 100.472 38.0487 100.594 35.7479 102.138C33.4766 103.662 33.0966 103.804 31.2795 103.808C29.526 103.811 29.0841 103.662 27.5061 102.533C26.523 101.829 25.1824 101.043 24.5271 100.787L23.3355 100.319L26.0166 100.044C30.8981 99.5414 36.9824 98.5829 41.2094 97.6504C45.3332 96.7409 45.3846 96.739 45.7899 97.4824C46.523 98.826 47.9662 98.1706 48.2845 96.3488Z" fill="#38515E"/>
<path d="M1.27898 101.144C-0.00159049 101.905 9.7653e-09 101.905 9.7653e-09 100.71C9.7653e-09 99.7138 0.0264133 99.6912 0.921502 99.9316C1.42813 100.068 2.36652 100.179 3.0068 100.179C3.73884 100.179 4.1706 100.342 4.1706 100.618C4.1706 100.918 3.86733 100.978 3.21533 100.809C2.59371 100.647 1.91708 100.765 1.27898 101.144Z" fill="#38515E"/>
<path d="M13.4055 103.798C11.573 103.822 11.2352 103.699 9.03629 102.207L6.65309 100.591L19.9593 100.614L18.5691 101.594C15.6076 103.682 15.396 103.772 13.4055 103.798Z" fill="#38515E"/>
<path d="M61.3187 87.8101C61.1701 87.8101 60.8718 87.8101 60.7232 87.6345C60.4249 87.4589 38.3245 74.6904 23.326 87.4589C22.7305 87.987 18.6999 89.5134 19.6572 88.9541C19.4179 89.7931 20.7933 85.6991 21.2402 84.9943C21.3888 84.6418 40.6095 54.5377 22.4323 16.6864C22.134 16.1584 22.134 15.2778 22.5809 14.7498C22.8792 14.2217 23.4747 13.8693 24.0712 14.0461C24.5181 14.2217 72.0469 28.1305 62.8093 86.4031C62.6607 86.9312 62.5111 87.4593 62.0642 87.6361C61.7648 87.8105 61.4673 87.8101 61.3187 87.8101ZM38.8195 80.5637C47.908 80.5637 58.3393 84.642 62.0642 86.4031C66.154 33.8572 34.2041 18.975 24.0712 14.7498C32.2661 34.116 32.399 54.9291 30.0159 66.0204C28.6752 72.1828 23.4864 82.5214 22.0504 86.7166C26.119 83.9198 30.9055 80.5637 38.8195 80.5637Z" fill="#38515E"/>
<path d="M69.4014 0C67.6584 14.2271 68.1724 18.415 56 20C67.9657 21.9428 68.1379 26.3242 69.4014 40C71.0658 26.2443 70.7419 22.1236 82.8029 20C70.6471 18.4389 71.0564 14.2104 69.4014 0Z" fill="#F09C2E"/>
</svg>
