<svg width="64" height="90" viewBox="0 0 64 90" fill="none" xmlns="http://www.w3.org/2000/svg">
<path d="M17.749 75.0431C17.2437 74.8443 16.825 74.1047 16.5482 73.9202C9.6354 66.3869 3.06622 72.6759 2.78946 72.8592C0.60238 74.3074 0.7438 75.0431 0.329129 74.3074C-0.0855667 73.5731 -0.0855682 72.4696 0.605912 71.7353C20.1003 50.6071 18.5795 2.65325 18.5795 2.28579C18.5795 1.55143 18.4108 -1.02727 19.5478 0.447982C19.271 -0.103106 20.865 3.25558 19.5478 0.447982C34.8654 30.9458 20.3293 69.7613 17.7154 75.0754C17.3676 74.6133 18.0631 74.6133 17.7492 75.0425L17.749 75.0431ZM9.59375 69.7613C11.944 69.7613 15.1231 71.3002 17.749 73.6891C21.3434 67.2579 32.6234 29.8445 18.9365 0.999071C18.7986 6.14348 18.7074 19.7541 17.7492 28.6356C15.3312 51.0469 7.5074 63.7542 1.0745 73.6891C5.76878 69.7613 8.62553 69.7613 9.59375 69.7613Z" fill="#38515E"/>
<path d="M47.6969 78.2422C47.9519 78.1391 49.3669 77.7653 50.8415 77.4117L54.4163 76.4656L55.6576 77.5478C55.3726 78.1963 54.7633 78.4846 52.275 79.1467C48.5465 80.1391 48.3441 80.1414 47.7283 79.1922L47.2334 78.4297L47.6969 78.2422Z" fill="#38515E"/>
<path d="M1.42932 79.7337C9.08157 81.722 32.5725 81.2256 44.1884 78.8296C45.0623 78.6495 45.8469 78.4787 45.9321 78.4503C46.0173 78.4219 45.8896 78.9218 45.6481 79.561C45.1479 80.8868 45.0345 80.9389 41.408 81.5018C39.988 81.7224 38.3794 81.983 37.8332 82.0814C32.8033 82.9863 10.9162 83.1761 5.16359 82.365C0.519733 81.7103 0.397196 81.6609 0.397196 80.4449C0.397196 79.4894 0.422623 79.4719 1.42932 79.7337Z" fill="#38515E"/>
<path d="M46.3635 82.6623C46.0674 82.181 45.9715 80.6763 46.2076 80.2142C46.4435 79.7516 47.2117 79.9395 47.4574 80.5195C47.5891 80.8304 47.6401 81.4341 47.5708 81.8613C47.4127 82.8369 46.744 83.2808 46.3635 82.6623Z" fill="#38515E"/>
<path d="M48.2845 82.3487C48.3255 82.1145 49.6549 81.5006 51.2387 80.9848C54.965 79.7711 54.8755 79.7792 54.6278 80.6857C54.2028 82.2413 51.5392 86.6092 50.2378 87.8844C48.0822 89.9968 47.6552 90.0143 44.8325 88.1046C42.5706 86.575 42.2557 86.4606 40.3157 86.466C38.383 86.4719 38.0487 86.5941 35.7479 88.1381C33.4766 89.6622 33.0966 89.8042 31.2795 89.8077C29.526 89.8112 29.0841 89.6622 27.5061 88.5329C26.523 87.8292 25.1824 87.0434 24.5271 86.7866L23.3355 86.3194L26.0166 86.0436C30.8981 85.5413 36.9824 84.5828 41.2094 83.6504C45.3332 82.7408 45.3846 82.7389 45.7899 83.4823C46.523 84.826 47.9662 84.1705 48.2845 82.3487Z" fill="#38515E"/>
<path d="M1.27898 87.1437C-0.00159048 87.9046 9.76514e-09 87.905 9.76514e-09 86.7096C9.76514e-09 85.7137 0.0264133 85.6911 0.921502 85.9316C1.42813 86.0677 2.36652 86.179 3.0068 86.179C3.73884 86.179 4.1706 86.342 4.1706 86.6182C4.1706 86.9177 3.86733 86.9784 3.21533 86.8092C2.59371 86.6473 1.91708 86.7644 1.27898 87.1437Z" fill="#38515E"/>
<path d="M13.4055 89.798C11.573 89.8221 11.2352 89.6992 9.03629 88.2073L6.65309 86.5905L13.3062 86.6022L19.9593 86.6135L18.5691 87.5938C15.6076 89.6821 15.396 89.7723 13.4055 89.798Z" fill="#38515E"/>
<path d="M61.3187 73.8101C61.1701 73.8101 60.8718 73.8101 60.7232 73.6345C60.4249 73.4589 38.3245 60.6904 23.326 73.4589C22.7305 73.987 18.6999 75.5134 19.6572 74.9541C19.4179 75.7931 20.7933 71.6991 21.2402 70.9943C21.3888 70.6418 40.6095 40.5377 22.4323 2.68641C22.134 2.15835 22.134 1.27784 22.5809 0.749785C22.8792 0.221726 23.4747 -0.130721 24.0712 0.0461164C24.5181 0.221724 72.0469 14.1305 62.8093 72.4031C62.6607 72.9312 62.5111 73.4593 62.0642 73.6361C61.7648 73.8105 61.4673 73.8101 61.3187 73.8101ZM38.8195 66.5637C47.908 66.5637 58.3393 70.642 62.0642 72.4031C66.154 19.8572 34.2041 4.97501 24.0712 0.749785C32.2661 20.116 32.399 40.9291 30.0159 52.0204C28.6752 58.1828 23.4864 68.5214 22.0504 72.7166C26.119 69.9198 30.9054 66.5637 38.8195 66.5637Z" fill="#38515E"/>
</svg>
