<svg width="57" height="21" viewBox="0 0 57 21" fill="none" xmlns="http://www.w3.org/2000/svg">
<g id="logo">
<g id="navis">
<path d="M1.73306 11.4496C1.96 11.1904 2.20071 10.9558 2.45516 10.7457C2.70962 10.5355 2.97783 10.3569 3.2598 10.2099C3.54864 10.0558 3.85123 9.9402 4.16759 9.86315C4.49081 9.7791 4.83811 9.73708 5.20948 9.73708C5.78029 9.73708 6.28233 9.83513 6.71559 10.0313C7.15573 10.2204 7.52022 10.4935 7.80907 10.8507C8.10479 11.2009 8.3283 11.6247 8.47959 12.122C8.63089 12.6193 8.70654 13.1691 8.70654 13.7715V20.548C7.68673 20.548 6.86001 19.7212 6.86001 18.7014V13.7715C6.86001 12.966 6.67777 12.3426 6.31327 11.9014C5.95566 11.4531 5.40892 11.229 4.67306 11.229C4.12976 11.229 3.62085 11.362 3.14632 11.6282C2.19434 12.17 1.84653 13.3142 1.84653 14.4096V18.7014C1.84653 19.7212 1.01981 20.548 0 20.548V9.90518H1.10379C1.36513 9.90518 1.52674 10.0348 1.58863 10.2939L1.73306 11.4496Z" fill="#FFF5E8"/>
<path d="M18.509 15.8447C18.4825 16.7202 16.818 15.8447 15.9035 15.8447C15.7681 15.8447 15.6633 15.8447 15.5803 15.8461C14.8683 15.8583 14.1799 16.2958 13.9597 16.9731C13.8256 17.2777 13.8256 17.5117 13.8256 17.8058C13.8256 18.086 13.8703 18.3277 13.9597 18.5308C14.0491 18.7339 14.1695 18.902 14.3208 19.0351C14.4789 19.1611 14.6612 19.2557 14.8675 19.3187C15.0807 19.3748 15.3076 19.4028 15.5483 19.4028C15.8716 19.4028 16.1673 19.3713 16.4355 19.3082C16.7037 19.2382 16.9547 19.1401 17.1886 19.0141C17.4293 18.888 17.6562 18.7374 17.8694 18.5623C18.3107 18.2111 18.509 17.6504 18.509 17.0864V15.8447ZM12.0351 11.4671C13.3246 10.5916 13.7775 10.4165 14.4445 10.1363C15.1116 9.85615 15.8509 9.71606 16.6624 9.71606C17.247 9.71606 17.7662 9.81412 18.2201 10.0102C18.674 10.2064 19.0557 10.4795 19.3652 10.8297C19.6747 11.1799 19.9085 11.6037 20.0667 12.101C20.2248 12.5983 20.3039 13.1446 20.3039 13.7399V20.548C20.1962 20.548 19.8079 20.5378 19.4951 20.5175C19.2169 20.4994 18.9827 20.3515 18.8494 20.1067C18.7593 19.6664 18.2184 19.4941 17.8645 19.7712C17.8558 19.778 17.8471 19.7848 17.8384 19.7915C17.5771 19.9876 17.302 20.1557 17.0132 20.2958C16.7243 20.4289 16.4149 20.5305 16.0848 20.6005C15.7615 20.6775 15.4005 20.7161 15.0016 20.7161C14.5958 20.7161 14.2142 20.66 13.8565 20.548C13.4989 20.4289 13.186 20.2538 12.9178 20.0227C12.6565 19.7915 12.4467 19.5008 12.2885 19.1506C12.1372 18.7934 12.0616 18.3732 12.0616 17.8899C12.0616 17.4696 12.084 16.7901 12.2885 16.2824C12.4649 15.8447 12.8157 15.2703 13.3246 14.9692C14.1201 14.4984 15.0503 14.6917 15.9438 14.9288C17.0658 15.2265 18.4929 15.4998 18.509 14.9692V13.7399C18.509 12.9135 18.3336 12.2901 17.9829 11.8698C17.6321 11.4426 17.1198 11.229 16.4458 11.229C15.9919 11.229 15.6102 11.2885 15.3008 11.4076C14.9982 11.5196 14.7334 11.6492 14.5064 11.7963C14.2864 11.9364 14.0938 12.066 13.9288 12.185C13.7706 12.2971 13.6124 12.3531 13.4542 12.3531C13.3304 12.3531 13.2238 12.3216 13.1344 12.2586C13.045 12.1885 12.0351 11.4671 12.0351 11.4671Z" fill="#FFF5E8"/>
<path d="M33.1745 9.90518L28.9141 20.548H27.2635L23.0031 9.90518H24.4989C24.6502 9.90518 24.774 9.9437 24.8703 10.0207C24.9666 10.0978 25.0319 10.1888 25.0663 10.2939L27.7174 17.144C27.8 17.4031 27.8722 17.6553 27.9341 17.9004C27.9784 18.076 28.2405 18.076 28.2848 17.9004C28.3467 17.6553 28.4224 17.4031 28.5118 17.144L31.1939 10.2939C31.2351 10.1818 31.3039 10.0908 31.4002 10.0207C31.4965 9.9437 31.6099 9.90518 31.7406 9.90518H33.1745Z" fill="#FFF5E8"/>
<path d="M38 9.90518V20.548H36.1638V11.7414C36.1638 10.7273 36.9859 9.90518 38 9.90518Z" fill="#FFF5E8"/>
</g>
<g id="Group">
<path id="Vector" d="M52.1257 0C51.5891 4.53536 51.7473 5.87037 48 6.37564C51.6837 6.99496 51.7367 8.39168 52.1257 12.7513C52.638 8.3662 52.5383 7.05259 56.2513 6.37564C52.5092 5.878 52.6352 4.53 52.1257 0Z" fill="#F09C2E"/>
</g>
<path id="navis_2" d="M47.4466 11.6424C47.3689 11.7968 47.2492 11.874 47.0874 11.874C46.9903 11.874 46.8803 11.8354 46.7573 11.7582C46.6343 11.681 46.4822 11.5968 46.301 11.5055C46.1262 11.4073 45.9159 11.3196 45.6699 11.2424C45.4239 11.1582 45.1327 11.1161 44.7961 11.1161C44.5049 11.1161 44.2427 11.1582 44.0097 11.2424C43.7767 11.3196 43.5761 11.4283 43.4078 11.5687C43.246 11.709 43.1197 11.874 43.0291 12.0634C42.945 12.2459 42.9029 12.4459 42.9029 12.6634C42.9029 12.9371 42.9741 13.1652 43.1165 13.3476C43.2654 13.5301 43.4595 13.688 43.699 13.8213C43.9385 13.9547 44.2104 14.074 44.5146 14.1792C44.8188 14.2775 45.1295 14.3862 45.4466 14.5055C45.7702 14.6178 46.0841 14.7441 46.3883 14.8845C46.6926 15.0248 46.9644 15.2003 47.2039 15.4108C47.4434 15.6213 47.6343 15.881 47.7767 16.1897C47.9256 16.4915 48 16.8564 48 17.2845C48 17.7757 47.9191 18.2319 47.7573 18.6529C47.5955 19.0669 47.356 19.4283 47.0388 19.7371C46.7217 20.0389 46.3333 20.2775 45.8738 20.4529C45.4142 20.6283 44.8835 20.7161 44.2816 20.7161C43.5955 20.7161 42.9741 20.5968 42.4175 20.3582C41.8608 20.1126 41.3883 19.8003 41 19.4213V19.3652C41.0518 19.274 41 18.9266 41.4045 18.488C41.4045 18.488 41.8091 18.0494 42.2136 18.0494C42.2136 18.0494 42.4727 18.4213 42.6181 18.5687C42.6318 18.5826 42.652 18.6016 42.6761 18.6237C42.9018 18.8303 43.1582 19.0001 43.4272 19.1459L43.4761 19.1724C43.7095 19.2989 43.9708 19.3652 44.2362 19.3652C44.5017 19.3652 44.763 19.2989 44.9964 19.1724L45.241 19.0398C45.3793 18.9648 45.5043 18.8676 45.6109 18.752C45.7707 18.5787 45.8853 18.3686 45.9444 18.1403L45.9886 17.9696C46.0338 17.7949 46.0566 17.6152 46.0566 17.4348V17.4103V17.1967V17.1355C46.0566 16.9526 46.0251 16.771 45.9633 16.5989C45.8914 16.3983 45.7799 16.2143 45.6355 16.0577L45.4498 15.8564C45.182 15.566 44.8675 15.3224 44.5201 15.1345C44.3514 15.0432 44.213 14.968 44.2362 14.9792C44.2362 14.9792 43.4078 14.5425 43.1165 14.3502C42.8252 14.158 42.657 14.0389 42.4175 13.8213C42.0006 13.4427 41.6247 12.966 41.5938 12.4037C41.5928 12.3847 41.5922 12.366 41.5922 12.3476C41.5922 12.2507 41.5943 12.1102 41.6074 11.9525C41.6475 11.4689 41.8258 10.9901 42.1748 10.6529C42.4725 10.3652 42.8382 10.1371 43.2718 9.9687C43.7055 9.80028 44.2006 9.71606 44.7573 9.71606C45.4045 9.71606 45.9838 9.82834 46.4951 10.0529C47.0129 10.2705 47.4595 10.5722 47.835 10.9582L47.4466 11.6424Z" fill="#FFF5E8"/>
</g>
</svg>
