<svg width="63" height="14" viewBox="0 0 63 14" fill="none" xmlns="http://www.w3.org/2000/svg">
<path d="M2.23473 2.2063C2.52737 1.87647 2.83775 1.57784 3.16587 1.31041C3.49398 1.04298 3.83983 0.815663 4.20342 0.628462C4.57588 0.432346 4.96607 0.285259 5.37399 0.187201C5.79079 0.0802287 6.23862 0.0267427 6.71749 0.0267427C7.45353 0.0267427 8.1009 0.151544 8.65958 0.401146C9.22713 0.641834 9.69713 0.989494 10.0696 1.44413C10.4509 1.88984 10.7391 2.42916 10.9342 3.06208C11.1293 3.695 11.2269 4.39478 11.2269 5.16141V13.7861C9.91184 13.7861 8.84581 12.72 8.84581 11.405V5.16141C8.84581 4.13626 8.6108 3.34288 8.1408 2.78128C7.67967 2.21076 6.97466 1.9255 6.02579 1.9255C5.32522 1.9255 4.66899 2.09487 4.0571 2.43362C2.83298 3.12126 2.38105 4.5863 2.38105 5.99033V11.405C2.38105 12.72 1.31502 13.7861 0 13.7861V0.240688H1.42331C1.76029 0.240688 1.96869 0.405603 2.0485 0.735434L2.23473 2.2063Z" fill="#38515E"/>
<path d="M23.8668 7.80006C23.8327 8.91436 21.6864 7.80006 20.5072 7.80006C20.3291 7.80006 20.1922 7.80006 20.0842 7.80198C19.1723 7.81818 18.286 8.36991 18.0007 9.23618C17.8277 9.62391 17.8277 9.92168 17.8277 10.2961C17.8277 10.6527 17.8854 10.9602 18.0007 11.2187C18.116 11.4772 18.2711 11.6912 18.4662 11.8606C18.6702 12.021 18.9052 12.1414 19.1712 12.2216C19.4462 12.2929 19.7388 12.3286 20.0492 12.3286C20.466 12.3286 20.8473 12.2884 21.1931 12.2082C21.539 12.1191 21.8627 11.9943 22.1642 11.8338C22.4746 11.6734 22.7672 11.4817 23.0421 11.2588C23.6102 10.8127 23.8668 10.0949 23.8668 9.37256V7.80006ZM15.519 2.22859C17.1817 1.11429 17.7657 0.891436 18.6259 0.534861C19.4861 0.178287 20.4394 0 21.4858 0C22.2396 0 22.9091 0.124801 23.4944 0.374403C24.0797 0.624005 24.5718 0.971665 24.9709 1.41738C25.37 1.8631 25.6715 2.40242 25.8754 3.03534C26.0794 3.66826 26.1814 4.36358 26.1814 5.1213V13.7861C26.042 13.7861 25.5378 13.773 25.1335 13.7469C24.7781 13.724 24.4778 13.5363 24.3058 13.2245C24.189 12.6609 23.4982 12.4395 23.0431 12.7918C23.0295 12.8023 23.0158 12.8129 23.0022 12.8233C22.6652 13.0729 22.3105 13.2869 21.9381 13.4651C21.5656 13.6345 21.1665 13.7638 20.7409 13.8529C20.3241 13.951 19.8585 14 19.3442 14C18.821 14 18.3288 13.9287 17.8677 13.7861C17.4065 13.6345 17.003 13.4117 16.6572 13.1175C16.3202 12.8233 16.0497 12.4534 15.8458 12.0076C15.6507 11.553 15.5531 11.0181 15.5531 10.4031C15.5531 9.8682 15.582 9.00332 15.8458 8.35721C16.0732 7.80006 16.5255 7.06909 17.1817 6.68577C18.2092 6.08559 19.4068 6.3325 20.5579 6.63402C22.0048 7.01303 23.8461 7.36127 23.8668 6.68577V5.1213C23.8668 4.06941 23.6407 3.27603 23.1884 2.74116C22.7362 2.19739 22.0755 1.9255 21.2064 1.9255C20.6212 1.9255 20.129 2.00127 19.7299 2.15282C19.3397 2.29545 18.9983 2.46036 18.7057 2.64756C18.4219 2.82585 18.1736 2.99077 17.9608 3.14231C17.7568 3.28494 17.5528 3.35626 17.3489 3.35626C17.1893 3.35626 17.0518 3.31614 16.9365 3.23591C16.8212 3.14677 15.519 2.22859 15.519 2.22859Z" fill="#38515E"/>
<path d="M42.7777 0.240688L37.2839 13.7861H35.1556L29.6619 0.240688H31.5907C31.7858 0.240688 31.9454 0.289716 32.0696 0.387774C32.1937 0.485832 32.278 0.601719 32.3223 0.735434L35.7409 9.45368C35.8473 9.78351 35.9404 10.1044 36.0203 10.4164C36.078 10.6422 36.4148 10.6422 36.4725 10.4164C36.5523 10.1044 36.6499 9.78351 36.7652 9.45368L40.2237 0.735434C40.2769 0.592804 40.3656 0.476918 40.4897 0.387774C40.6139 0.289716 40.7602 0.240688 40.9287 0.240688H42.7777Z" fill="#38515E"/>
<path d="M49 0.240688V13.7861H46.6322V2.60844C46.6322 1.30077 47.6923 0.240688 49 0.240688Z" fill="#38515E"/>
<path d="M62.2094 2.45167C62.0985 2.64817 61.9274 2.74641 61.6963 2.74641C61.5576 2.74641 61.4004 2.69729 61.2247 2.59904C61.049 2.5008 60.8317 2.39362 60.5728 2.27751C60.3232 2.15247 60.0227 2.04083 59.6713 1.94258C59.3199 1.83541 58.9038 1.78182 58.423 1.78182C58.0069 1.78182 57.6325 1.83541 57.2996 1.94258C56.9667 2.04083 56.6801 2.17927 56.4397 2.35789C56.2085 2.53652 56.0282 2.74641 55.8988 2.98756C55.7785 3.21978 55.7184 3.47432 55.7184 3.7512C55.7184 4.09952 55.8202 4.38979 56.0236 4.62201C56.2362 4.85423 56.5136 5.05518 56.8558 5.22488C57.1979 5.39458 57.5862 5.54641 58.0208 5.68038C58.4554 5.80542 58.8992 5.94386 59.3523 6.09569C59.8146 6.2386 60.2631 6.39936 60.6976 6.57799C61.1322 6.75662 61.5206 6.9799 61.8627 7.24785C62.2048 7.51579 62.4776 7.84625 62.681 8.23923C62.8937 8.62329 63 9.08772 63 9.63254C63 10.2577 62.8844 10.8383 62.6533 11.3742C62.4221 11.9011 62.08 12.3611 61.6269 12.7541C61.1738 13.1381 60.619 13.4418 59.9626 13.6651C59.3061 13.8884 58.5478 14 57.6879 14C56.7078 14 55.8202 13.8482 55.025 13.5445C54.2298 13.2319 53.5548 12.8344 53 12.3522V12.2807C53.074 12.1646 53 11.7225 53.5779 11.1643C53.5779 11.1643 54.1558 10.6061 54.7337 10.6061C54.7337 10.6061 55.1039 11.0794 55.3116 11.267C55.329 11.2827 55.3537 11.3036 55.3833 11.3278C55.7132 11.5985 56.0831 11.816 56.4674 12.0016L56.5249 12.0294C56.8674 12.1948 57.2429 12.2807 57.6232 12.2807C58.0036 12.2807 58.379 12.1948 58.7215 12.0294L59.0847 11.8539C59.265 11.7669 59.4303 11.6516 59.5743 11.5125C59.8105 11.2843 59.983 10.9984 60.0746 10.683L60.1231 10.5163C60.1899 10.2864 60.2238 10.0482 60.2238 9.80871V9.79261V9.52077V9.45948C60.2238 9.21614 60.1771 8.97506 60.0862 8.74931C59.9864 8.50136 59.8354 8.27723 59.6432 8.09153L59.3569 7.81499C58.9741 7.44525 58.5342 7.13969 58.0548 6.90872C57.8022 6.78707 57.5888 6.68374 57.6232 6.69856C57.6232 6.69856 56.4397 6.14268 56.0236 5.898C55.6075 5.65333 55.3671 5.50175 55.025 5.22488C54.4325 4.74538 53.8546 4.12322 53.8461 3.36106C53.8461 3.35712 53.846 3.35319 53.846 3.34928C53.846 3.23293 53.8487 3.06717 53.8647 2.88023C53.9196 2.23858 54.1902 1.61252 54.6782 1.19234C55.1036 0.826156 55.626 0.535885 56.2455 0.321532C56.865 0.107177 57.5724 0 58.3675 0C59.2922 0 60.1197 0.142902 60.8502 0.428708C61.5899 0.705582 62.2279 1.08963 62.7642 1.58086L62.2094 2.45167Z" fill="#38515E"/>
</svg>
